<?xml version="1.0" encoding="UTF-8"?>
<svg width="140px" height="140px" viewBox="0 0 140 140" version="1.1" xmlns="http://www.w3.org/2000/svg" xmlns:xlink="http://www.w3.org/1999/xlink">
    <title>编组 3</title>
    <g id="页面-4" stroke="none" stroke-width="1" fill="none" fill-rule="evenodd">
        <g id="编组-3">
            <rect id="矩形" x="0" y="0" width="140" height="140"></rect>
            <g id="编组" transform="translate(18.000000, 10.000000)">
                <polygon id="三角形" fill="#2C2C2C" points="87 46 70 94 12 64"></polygon>
                <polygon id="三角形备份" fill="#5B5B5B" points="70 94 52 120 12 64"></polygon>
                <polygon id="三角形备份-2" fill="#727272" points="104 91 52 120 70 94"></polygon>
                <polygon id="三角形备份-3" fill="#666666" points="70 94 104 91 87 46"></polygon>
                <polygon id="三角形备份-4" fill="#151515" points="87 46 104 91 104 31"></polygon>
                <polygon id="三角形备份-5" fill="#373737" points="52 -9.89486271e-15 104 31 87 46"></polygon>
                <polygon id="三角形备份-6" fill="#B8B8B8" points="52 0 12 64 0 31"></polygon>
                <polygon id="三角形备份-7" fill="#898989" points="0 31 0 91 12 64"></polygon>
                <polygon id="三角形备份-8" fill="#434343" points="12 64 0 91 52 120"></polygon>
                <polygon id="三角形" fill="#727272" points="52 0 87 46 12 64"></polygon>
            </g>
        </g>
    </g>
</svg>