<?xml version="1.0" encoding="UTF-8"?>
<svg width="336px" height="183px" viewBox="0 0 336 183" version="1.1" xmlns="http://www.w3.org/2000/svg" xmlns:xlink="http://www.w3.org/1999/xlink">
    <title>编组 10</title>
    <g id="页面-2" stroke="none" stroke-width="1" fill="none" fill-rule="evenodd">
        <g id="编组-10" fill-rule="nonzero">
            <g id="编组" transform="translate(58.000000, 0.000000)">
                <path d="M51.0131127,151.224802 C14.7852036,151.224802 0,121.650038 0,88.7329924 C0,55.8159466 14.5369471,35.548771 33.2780641,35.548771 C52.0191811,35.548771 46.6956083,55.2336031 68.6240329,55.2336031 C90.5524575,55.2336031 102.428293,8.72719084 133.830042,8.72719084 C165.23179,8.72719084 141.35914,52.5610382 169.144978,52.5610382 C196.930817,52.5610382 228.127484,41.5320916 228.127484,86.5301756 C228.127484,131.52826 284.042314,152.648008 242.247972,152.648008 C200.453631,152.648008 51.0131127,151.224802 51.0131127,151.224802 Z" id="bg_4_" fill="#F3F9FF"></path>
                <g id="plant_30_" transform="translate(222.627614, 85.824427)">
                    <path d="M2.84685442,55.2402137 C0.610746967,50.0018244 -2.72497487,42.5799847 4.09263432,38.1973206 C10.9102435,33.8146565 4.68629116,31.2195573 4.46501906,24.8669237 C4.24374697,18.5147405 11.2025745,16.8821069 10.9943449,13.8699542 C10.7861153,10.8578015 10.4407149,5.53158779 11.0829437,3.25896183 C12.1578224,-0.544061069 20.2023224,-2.27082443 21.0230979,8.43745038 C21.5389497,15.1661527 22.2324489,19.2290458 25.8159775,24.0287634 C29.3995061,28.8284809 21.505669,33.9033817 21.6518345,37.7672061 C21.798,41.6310305 25.6873518,41.0585954 25.2618977,49.2478855 C24.8364437,57.4371756 19.4616005,63.6294733 14.3512045,63.2642137 C10.8805607,63.0156031 4.88822444,60.021916 2.84685442,55.2402137 Z" id="Path" fill="#DCEEFD"></path>
                    <path d="M16.0152426,66.0336107 C16.1726516,66.0336107 16.31387,65.9237176 16.3476005,65.7633817 C16.4694801,65.1828397 16.111487,64.0685954 15.3550243,61.8045267 C14.0795615,57.9884427 12.153325,52.2213053 12.5765303,46.9243664 C12.8418769,43.6046031 13.6613033,40.0655038 14.454195,36.6439542 C15.5879896,31.7487557 16.6588206,27.1251374 16.033682,23.5729771 C15.3320875,19.5843969 15.8034151,14.4189695 16.0854021,11.3325038 C16.2504567,9.52647328 16.3251135,8.64192366 16.2293189,8.26405344 C16.1829957,8.08119847 15.9977028,7.96950382 15.8160078,8.01814504 C15.6338631,8.06453435 15.5241265,8.24964122 15.5704497,8.4320458 C15.6419584,8.71353435 15.5335711,9.89848855 15.4085433,11.2703511 C15.1234081,14.3905954 14.646234,19.6132214 15.3644688,23.6918779 C15.9657712,27.1071221 14.9097816,31.6649847 13.7921776,36.490374 C12.9938891,39.9362443 12.1681664,43.5001145 11.8987721,46.8703206 C11.464773,52.3064275 13.4179939,58.1528321 14.7100971,62.0211603 C15.2799177,63.725855 15.7719333,65.1986031 15.682435,65.6228626 C15.6437574,65.8070687 15.7615893,65.9881221 15.9450832,66.0264046 C15.9680199,66.0309084 15.9918562,66.0336107 16.0152426,66.0336107 Z" id="Path" fill="#D0E7FE"></path>
                    <path d="M16.7708059,30.4912901 C18.4865641,30.4912901 19.7507834,28.9676489 20.2445979,27.9876183 C20.329149,27.8200763 20.2621378,27.6151527 20.0943847,27.5304809 C19.9275312,27.4440076 19.722,27.5124656 19.6378986,27.6800076 C19.5776334,27.7975573 18.1398146,30.567855 15.817357,29.6107939 C15.6424081,29.5378321 15.4449723,29.6216031 15.3734636,29.7959008 C15.3019549,29.9701985 15.3847071,30.1688168 15.5583068,30.2404275 C15.9824116,30.4151756 16.3880771,30.4912901 16.7708059,30.4912901 Z" id="Path" fill="#D0E7FE"></path>
                    <path d="M15.8402938,24.8565649 C15.9986023,24.8565649 16.1407201,24.7448702 16.1731014,24.584084 C16.2104298,24.3998779 16.0912487,24.2201756 15.907305,24.1823435 C15.8713258,24.1751374 12.298591,23.413542 11.3015173,20.3311298 C11.2439506,20.1527786 11.0532608,20.0550458 10.8729151,20.1122443 C10.6943683,20.1698931 10.5967747,20.3622061 10.6543414,20.541458 C11.7759931,24.0075954 15.6100269,24.8173817 15.772383,24.8502595 C15.7953198,24.8547634 15.8182565,24.8565649 15.8402938,24.8565649 Z" id="Path" fill="#D0E7FE"></path>
                    <path d="M12.239675,47.2378321 C12.4420581,47.2378321 17.0366023,47.1878397 18.1578042,43.3636489 C18.2104237,43.1834962 18.1074333,42.9938855 17.9270875,42.9411908 C17.7449428,42.8884962 17.557851,42.9925344 17.5052314,43.1717863 C16.5108562,46.5654122 12.4042799,46.5640611 12.241474,46.556855 C12.0548319,46.5586565 11.8996716,46.7045802 11.8978477,46.8932901 C11.8956239,47.0806489 12.0458371,47.2351298 12.2333787,47.2378321 C12.2333787,47.2378321 12.2356274,47.2378321 12.239675,47.2378321 Z" id="Path" fill="#D0E7FE"></path>
                    <path d="M12.5203128,52.8464351 C12.6529861,52.8464351 12.7798128,52.7680687 12.8342314,52.6370076 C12.9066395,52.4640611 12.8247868,52.264542 12.6516369,52.1920305 C12.5823769,52.1627557 5.7292383,49.2433817 5.58037435,44.9787176 C5.57362825,44.7913588 5.41172184,44.6521908 5.22867764,44.6499389 C5.04113605,44.6566947 4.89407106,44.8143282 4.90081716,45.0025878 C5.06452253,49.7036718 12.0903614,52.6946565 12.3889887,52.8198626 C12.4321638,52.8374275 12.476688,52.8464351 12.5203128,52.8464351 Z" id="Path" fill="#D0E7FE"></path>
                </g>
                <g id="plant_29_" transform="translate(204.188272, 108.343511)">
                    <path d="M16.1937894,36.3773282 C17.6725347,32.9134427 19.8780598,28.0056336 15.3698657,25.1074275 C10.8616716,22.2092214 14.9772426,20.4932672 15.1238579,16.2925573 C15.2704731,12.0918473 10.6682834,11.0127328 10.8063536,9.02069466 C10.943974,7.02910687 11.1724419,3.50712214 10.7478873,2.00419847 C10.0368484,-0.510732824 4.71777296,-1.65245038 4.17493674,5.42845038 C3.8340338,9.87777099 3.37529896,12.5642977 1.00561872,15.7381374 C-1.36406153,18.9119771 3.85562132,22.267771 3.75937695,24.8227863 C3.66268284,27.3778015 1.09106932,26.9994809 1.37215685,32.4144198 C1.65324437,37.8293588 5.20753986,41.924229 8.58688648,41.6828244 C10.8810104,41.5188855 14.8436698,39.539458 16.1937894,36.3773282 Z" id="Path" fill="#DCEEFD"></path>
                    <path d="M7.48592288,43.5145267 C7.38203293,43.5145267 7.288487,43.4420153 7.266,43.3361756 C7.18549653,42.952 7.42205979,42.215626 7.92217071,40.7185573 C8.76543328,38.1950687 10.0395468,34.381687 9.75935875,30.8786183 C9.58396014,28.683458 9.0420234,26.3432748 8.51762652,24.0805573 C7.76790988,20.8432137 7.05956932,17.7860229 7.47333016,15.4372824 C7.93746187,12.7998473 7.62534229,9.38415267 7.43914991,7.3430229 C7.32986308,6.14906107 7.28039168,5.56401527 7.34425477,5.31405344 C7.37483709,5.19290076 7.49716638,5.11903817 7.61769671,5.15146565 C7.73822704,5.1820916 7.81063518,5.30459542 7.78005286,5.42484733 C7.73283016,5.61085496 7.80433882,6.39451908 7.88709099,7.30158779 C8.07553206,9.36478626 8.39124957,12.818313 7.91632409,15.5151985 C7.5187539,17.7738626 8.21675043,20.7873664 8.95612305,23.9783206 C9.48411785,26.2572519 10.0301023,28.6136489 10.2081993,30.8421374 C10.4951334,34.4366336 9.20348007,38.3027099 8.348974,40.8608779 C7.97209185,41.9881832 7.64692981,42.9619084 7.70584575,43.2424962 C7.73148094,43.3645496 7.65367591,43.4839008 7.5322461,43.5095725 C7.51695494,43.5127252 7.50121404,43.5145267 7.48592288,43.5145267 Z" id="Path" fill="#D0E7FE"></path>
                    <path d="M6.9862617,20.0118092 C5.85201733,20.0118092 5.01595061,19.0043053 4.6889896,18.3562061 C4.6327721,18.2454122 4.67729636,18.1098473 4.78838215,18.054 C4.8990182,17.9968015 5.03438995,18.0422901 5.09015771,18.153084 C5.13018458,18.231 6.08093501,20.0627023 7.61679723,19.429916 C7.73238042,19.3817252 7.86325477,19.4371221 7.91047747,19.5519695 C7.95770017,19.6668168 7.90283189,19.7987786 7.78814818,19.8456183 C7.5075104,19.9618168 7.23946534,20.0118092 6.9862617,20.0118092 Z" id="Path" fill="#D0E7FE"></path>
                    <path d="M7.60150607,16.2858015 C7.49671664,16.2858015 7.40317071,16.2119389 7.38158319,16.1056489 C7.35684749,15.9835954 7.43555199,15.865145 7.55743154,15.8399237 C7.58126776,15.8349695 9.94375217,15.3314427 10.6030711,13.2934656 C10.641299,13.1754656 10.7672262,13.1110611 10.8864073,13.1488931 C11.0046889,13.1871756 11.0690017,13.3141832 11.0307738,13.4326336 C10.2891525,15.724626 7.75396794,16.2601298 7.64648007,16.2817481 C7.63118891,16.2844504 7.61634749,16.2858015 7.60150607,16.2858015 Z" id="Path" fill="#D0E7FE"></path>
                    <path d="M9.98287955,31.0857939 C9.84885702,31.0857939 6.81086308,31.052916 6.06924177,28.5240229 C6.03416205,28.4046718 6.10252253,28.2794656 6.22170364,28.2447863 C6.34223397,28.2101069 6.46591248,28.2785649 6.5009922,28.3974656 C7.15851213,30.6412672 9.87404246,30.6403664 9.98153033,30.6358626 C10.1047591,30.6372137 10.2072998,30.7335954 10.2086627,30.8583511 C10.2099983,30.9822061 10.1110555,31.0844427 9.98692721,31.0862443 C9.98647747,31.0857939 9.98512825,31.0857939 9.98287955,31.0857939 Z" id="Path" fill="#D0E7FE"></path>
                    <path d="M9.79668718,34.7942366 C9.70898787,34.7942366 9.62533622,34.7424427 9.58935702,34.6555191 C9.54168458,34.5411221 9.59565338,34.4091603 9.71033709,34.3614198 C9.75621057,34.3420534 14.2877912,32.4117176 14.3862842,29.5914275 C14.3907816,29.4675725 14.4978198,29.3756947 14.6187998,29.3743435 C14.7429281,29.3788473 14.8400719,29.4828855 14.8355745,29.6076412 C14.7271872,32.7161756 10.0813726,34.6942519 9.88393674,34.7771221 C9.85515338,34.7883817 9.82592028,34.7942366 9.79668718,34.7942366 Z" id="Path" fill="#D0E7FE"></path>
                </g>
                <g id="编组-3" transform="translate(18.000000, 0.000000)">
                    <g id="rocket" transform="translate(39.371981, 8.000000)">
                        <path d="M18.1280191,28 C12.3287103,28 7.62801906,37.3400841 7.62801906,48.8615975 L7.62801906,141 L18.1280191,141 L28.6280191,141 L28.6280191,48.8615975 C28.6284485,37.3400841 23.9273278,28 18.1280191,28 Z" id="Path" fill="#355AA2"></path>
                        <path d="M88.1280191,28 C82.3287103,28 77.6280191,37.3400841 77.6280191,48.8615975 L77.6280191,141 L88.1280191,141 L98.6280191,141 L98.6280191,48.8615975 C98.6284485,37.3400841 93.9273278,28 88.1280191,28 Z" id="Path" fill="#355AA2"></path>
                        <rect id="Rectangle" fill="#224380" x="7.62801906" y="80" width="21" height="3"></rect>
                        <rect id="Rectangle" fill="#224380" x="7.62801906" y="87" width="21" height="3"></rect>
                        <rect id="Rectangle" fill="#224380" x="77.6280191" y="80" width="21" height="3"></rect>
                        <rect id="Rectangle" fill="#224380" x="77.6280191" y="87" width="21" height="3"></rect>
                        <path d="M53.1278043,0 C53.1273749,0 53.1265159,0 53.1260864,0 L53.1260864,0 C39.007981,0.00340853702 28.6280191,27.6854159 28.6280191,41.6668087 L28.6280191,125 C34.6041526,125 71.7107235,125 77.6280191,125 L77.6280191,41.6668087 C77.6280191,26.3254096 66.6588185,0 53.1278043,0 Z" id="Path" fill="#224380"></path>
                        <polygon id="Path" fill="#DAE7FF" points="73.6280191 167 31.6280191 167 38.6280191 150 66.6280191 150"></polygon>
                        <polygon id="Path" fill="#C3D3F3" points="67.6280191 153 66.2643066 150 38.9917315 150 37.6280191 153"></polygon>
                        <path d="M96.5044614,126.201118 C84.6528386,114.235464 76.8942603,98.7828872 76.8942603,81.8610704 L76.8942603,76 L28.360927,76 L28.360927,81.8610704 C28.360927,98.7828872 20.6019234,114.235893 8.75072598,126.201118 C3.7320459,131.267656 0.628019064,138.267699 0.628019064,146 L28.3613524,146 L76.8946857,146 L104.628019,146 C104.628019,138.267699 101.523141,131.267656 96.5044614,126.201118 Z" id="Path" fill="#1B90FB"></path>
                        <path d="M53.1278043,14 C39.5967902,14 28.6280191,42.1024447 28.6280191,76.7693295 L28.6280191,136.05126 C28.6280191,143.754775 34.896195,150 42.6280191,150 L63.6280191,150 C71.3598431,150 77.6280191,143.754775 77.6280191,136.05126 L77.6280191,76.7693295 C77.6280191,42.1024447 66.6588185,14 53.1278043,14 Z" id="Path" fill="#DCEEFD"></path>
                        <path d="M28.6280191,76.7693295 L28.6280191,136.05126 C28.6280191,143.754775 34.7683269,150 42.342425,150 L52.6280191,150 L52.6280191,14 C39.3730319,14 28.6280191,42.1024447 28.6280191,76.7693295 Z" id="Path" fill="#F3F9FF"></path>
                        <path d="M77.4128525,150 L28.8427562,150 C28.7242213,150 28.6280191,149.90576 28.6280191,149.789643 L28.6280191,126 L77.6280191,126 L77.6280191,149.789643 C77.6280191,149.90576 77.5313874,150 77.4128525,150 Z" id="Path" fill="#224380"></path>
                        <polygon id="Path" fill="#183168" points="53.1282338 118 49.6280191 125 49.6280191 153 53.1282338 160 56.6280191 153 56.6280191 125"></polygon>
                        <rect id="Rectangle" fill="#AEC1E8" x="31.6280191" y="160" width="42" height="7"></rect>
                        <rect id="Rectangle" fill="#224380" x="28.6280191" y="98" width="49" height="3"></rect>
                        <rect id="Rectangle" fill="#224380" x="7.62801906" y="49" width="21" height="3"></rect>
                        <rect id="Rectangle" fill="#224380" x="77.6280191" y="49" width="21" height="3"></rect>
                        <path d="M60.3590247,43 C59.1120973,40.0068322 56.2776001,38.069949 53.129695,38.069949 C49.98179,38.069949 47.1443598,40.0033619 45.9037174,43 L39.6280191,40.2107147 C41.9454772,34.6143585 47.2440805,31 53.129695,31 C59.0086057,31 64.307209,34.6147923 66.6280191,40.2107147 L60.3590247,43 Z" id="Path" fill="#224380"></path>
                    </g>
                </g>
                <g id="chevron_arrow_2_" transform="translate(27.000000, 11.951899)">
                    <polygon id="Path" fill="#F3F9FF" points="9.90342832 35.9375241 19.4167735 45.4548911 19.4167735 52.2125823 9.90342832 42.6952152 0.390533628 52.2125823 0.390533628 45.4548911"></polygon>
                    <polygon id="Path" fill="#E7F4FE" points="9.90342832 24.0412658 19.4167735 33.5581823 19.4167735 40.3158734 9.90342832 30.7985063 0.390533628 40.3158734 0.390533628 33.5581823"></polygon>
                    <polygon id="Path" fill="#DCEEFD" points="9.90342832 12.144557 19.4167735 21.6619241 19.4167735 28.4191646 9.90342832 18.9017975 0.390533628 28.4191646 0.390533628 21.6619241"></polygon>
                    <polygon id="Path" fill="#D0E7FE" points="9.90342832 0.247848101 19.4167735 9.76521519 19.4167735 16.5224557 9.90342832 7.00553924 0.390533628 16.5224557 0.390533628 9.76521519"></polygon>
                </g>
            </g>
        </g>
    </g>
</svg>