<?xml version="1.0" encoding="UTF-8"?>
<svg width="336px" height="188px" viewBox="0 0 336 188" version="1.1" xmlns="http://www.w3.org/2000/svg" xmlns:xlink="http://www.w3.org/1999/xlink">
    <title>编组 11</title>
    <g id="页面-2" stroke="none" stroke-width="1" fill="none" fill-rule="evenodd">
        <g id="编组-11" fill-rule="nonzero">
            <g id="编组" transform="translate(81.000000, 5.000000)">
                <g id="plant_14_" transform="translate(171.546018, 36.143038)">
                    <path d="M3.00129823,52.6650177 C3.00129823,52.6650177 0.921154867,-3.9146481 34.9894708,0.363210127 C38.9006628,2.15943291 32.0940265,8.40205063 28.4585053,9.74854177 C23.7545345,11.490238 26.8873619,17.8995899 21.8009655,20.4934329 C15.5614363,23.6753519 17.1375345,28.0829924 16.4046646,35.2588709 C15.8771965,40.4208709 5.36702212,43.7650177 3.00129823,52.6650177 Z" id="Path" fill="#F3F9FF"></path>
                    <path d="M0.257202655,69.464162 C0.257202655,69.464162 19.0618248,20.2554987 46.4208,43.3531392 C49.0874195,47.112319 41.040715,48.5214481 37.4660035,47.5868354 C32.8404097,46.3773367 33.1692327,53.6068405 27.9094159,52.9020506 C21.4572779,52.0372861 21.1924177,56.6788051 17.9613938,62.3500203 C15.6366602,66.4300506 5.5003531,63.2625519 0.257202655,69.464162 Z" id="Path" fill="#E7F4FE"></path>
                    <path d="M4.22695221,66.1335342 C4.22695221,66.1335342 9.34533009,3.18011646 40.9335097,17.9590734 C43.6514796,19.5169114 38.7538186,24.8190582 34.228223,25.1822684 C29.7030779,25.5454785 31.123323,34.3030785 27.8035619,39.1302582 C24.1189425,44.4887342 17.2861805,43.6771443 16.0186354,51.8236861 C15.1073903,57.6850684 7.46653451,56.1668861 4.22695221,66.1335342 Z" id="Path" fill="#DCEEFD"></path>
                </g>
                <g id="cog_4_" transform="translate(81.313274, 10.027848)" fill="#F3F9FF">
                    <path d="M60.2552398,16.3850127 C59.7620053,15.1939899 58.4971628,14.5171392 57.2336717,14.7672405 L53.2414,15.5572 C52.2999752,15.743762 51.3261186,15.4157013 50.6905442,14.6969418 C50.0171327,13.9358228 49.3036319,13.2193165 48.5527442,12.5505772 C47.8369912,11.9133823 47.5126726,10.9440709 47.6982549,10.0036 L48.4869796,6.0164 C48.7369752,4.75192405 48.0599602,3.48654684 46.8698912,2.99355443 L40.9754009,0.551124051 C39.7853319,0.0576810127 38.4123832,0.47361519 37.6952788,1.54476962 L35.434508,4.92181266 C34.902085,5.71717975 33.9854345,6.17412152 33.030046,6.11869367 C32.0264602,6.06011139 31.0156673,6.06236456 30.0017212,6.12410127 C29.0427292,6.18223291 28.1247274,5.72619241 27.5900522,4.92767089 L25.3256779,1.54476962 C24.6085735,0.47361519 23.2356248,0.0581316456 22.0455558,0.551124051 L16.1515159,2.99355443 C14.9609965,3.48699747 14.2844319,4.75192405 14.5344274,6.0164 L15.3245035,10.0103595 C15.5105363,10.9521823 15.1830646,11.926 14.4646088,12.5622937 C13.7038115,13.2359899 12.987608,13.9497924 12.3191513,14.7009975 C11.6822257,15.4170532 10.7128735,15.7415089 9.77325044,15.5558481 L5.7877354,14.7672405 C4.52379381,14.5171392 3.25895133,15.1944405 2.76616726,16.3850127 L0.324769027,22.2819949 C-0.168465487,23.4725671 0.24729292,24.8460962 1.31799469,25.5635038 L4.69361062,27.8247797 C5.48864159,28.3574278 5.94539027,29.2744658 5.8895354,30.2302582 C5.83142832,31.2342684 5.83323009,32.2459392 5.89494071,33.2603139 C5.95349823,34.2197114 5.4972,35.1385519 4.69901593,35.6730025 L1.31754425,37.9383342 C0.246842478,38.6552911 -0.168465487,40.0292709 0.324318584,41.219843 L2.76571681,47.1163747 C3.25895133,48.3073975 4.52334336,48.9842481 5.78728496,48.7341468 L9.77955664,47.9437367 C10.7209814,47.7576253 11.6948381,48.0852354 12.3304124,48.8039949 C13.0038239,49.5651139 13.7173248,50.2816203 14.4682124,50.9503595 C15.1839655,51.5875544 15.5087345,52.5573165 15.3227018,53.4973367 L14.5344274,57.4840861 C14.2844319,58.748562 14.9609965,60.0139392 16.1515159,60.5073823 L22.0455558,62.9498127 C23.2360752,63.4432557 24.6085735,63.0273215 25.3256779,61.9561671 L27.5859982,58.5791241 C28.1184212,57.783757 29.0350717,57.3268152 29.9904602,57.382243 C30.994046,57.4408253 32.0048389,57.4385722 33.0192354,57.3768354 C33.9782274,57.3187038 34.8962292,57.7742937 35.4309044,58.5732658 L37.6952788,61.9561671 C38.4123832,63.0268709 39.7853319,63.4428051 40.9754009,62.9498127 L46.8694407,60.5073823 C48.0599602,60.0139392 48.7365248,58.7490127 48.4865292,57.4845367 L47.6964531,53.4905772 C47.5104204,52.5487544 47.837892,51.5749367 48.5563478,50.938643 C49.3171451,50.2649468 50.0333487,49.5511443 50.7018053,48.7999392 C51.338731,48.0838835 52.3080832,47.7594278 53.2481566,47.9450886 L57.2336717,48.7336962 C58.4976133,48.9837975 59.7624558,48.3069468 60.2552398,47.1159241 L62.6966381,41.2193924 C63.1894221,40.0283696 62.7741142,38.6548405 61.7034124,37.9378835 L58.3277965,35.6766076 C57.5327655,35.1439595 57.0760168,34.2269215 57.1314212,33.2711291 C57.1899788,32.267119 57.1877265,31.2558987 57.1260159,30.2415241 C57.0679088,29.2821266 57.5237566,28.3632861 58.3219407,27.8288354 L61.7034124,25.5635038 C62.7736637,24.8460962 63.1894221,23.4725671 62.6966381,22.2819949 L60.2552398,16.3850127 Z M36.6817832,44.2417873 C29.7859593,47.0992506 21.8806938,43.8231494 19.0244381,36.9248608 C16.1681823,30.0261215 19.4428991,22.1175139 26.3382726,19.2600506 C33.2340965,16.4025873 41.1393619,19.6786886 43.9956177,26.5769772 C46.8518735,33.4752658 43.5776071,41.3843241 36.6817832,44.2417873 Z" id="Shape"></path>
                </g>
                <g id="window" transform="translate(7.476991, 39.160759)">
                    <g id="Group" transform="translate(0.523009, 0.839241)">
                        <rect id="Rectangle" fill="#F3F9FF" x="5.23807004" y="5.39164333" width="157.413785" height="93.3169038"></rect>
                        <path d="M163.335818,0.207370897 L4.55369285,0.207370897 C2.07670228,0.207370897 0.0690580009,2.22094231 0.0690580009,4.70524566 L0.0690580009,99.3949448 C0.0690580009,101.879248 2.07670228,103.89282 4.55369285,103.89282 L163.336232,103.89282 C165.813222,103.89282 167.820867,101.879248 167.820867,99.3949448 L167.820867,4.70524566 C167.820867,2.22094231 165.812809,0.207370897 163.335818,0.207370897 Z M162.651855,98.7085471 L5.23807004,98.7085471 L5.23807004,5.39164333 L162.651855,5.39164333 L162.651855,98.7085471 L162.651855,98.7085471 Z" id="Shape" fill="#224380"></path>
                    </g>
                    <g id="Group" transform="translate(12.523009, 11.839241)">
                        <path d="M141.05049,82.9658801 L54.7416718,82.9658801 C53.6009793,82.9658801 52.6759484,82.0353882 52.6759484,80.8879617 L52.6759484,4.15583685 C52.6759484,3.0084103 53.6009793,2.07791842 54.7416718,2.07791842 L141.05049,2.07791842 C142.191183,2.07791842 143.116214,3.0084103 143.116214,4.15583685 L143.116214,80.8879617 C143.116214,82.0353882 142.191183,82.9658801 141.05049,82.9658801 Z" id="Path" fill="#DAE7FF"></path>
                        <path d="M141.05049,80.8879617 L54.7416718,80.8879617 C53.6009793,80.8879617 52.6759484,79.9574698 52.6759484,78.8100433 L52.6759484,2.07791842 C52.6759484,0.930491871 53.6009793,0 54.7416718,0 L141.05049,0 C142.191183,0 143.116214,0.930491871 143.116214,2.07791842 L143.116214,78.8100433 C143.116214,79.9574698 142.191183,80.8879617 141.05049,80.8879617 Z" id="Path" fill="#FFFFFF"></path>
                        <path d="M46.4544024,20.6424572 L2.39004205,20.6424572 C1.24934955,20.6424572 0.324318584,19.7119653 0.324318584,18.5645388 L0.324318584,4.15583685 C0.324318584,3.0084103 1.24934955,2.07791842 2.39004205,2.07791842 L46.4544024,2.07791842 C47.5950949,2.07791842 48.5201259,3.0084103 48.5201259,4.15583685 L48.5201259,18.5645388 C48.5201259,19.7123809 47.5955081,20.6424572 46.4544024,20.6424572 Z" id="Path" fill="#DAE7FF"></path>
                        <path d="M46.4544024,18.5645388 L2.39004205,18.5645388 C1.24934955,18.5645388 0.324318584,17.6340469 0.324318584,16.4866204 L0.324318584,2.07791842 C0.324318584,0.930491871 1.24934955,0 2.39004205,0 L46.4544024,0 C47.5950949,0 48.5201259,0.930491871 48.5201259,2.07791842 L48.5201259,16.4866204 C48.5201259,17.6344625 47.5955081,18.5645388 46.4544024,18.5645388 Z" id="Path" fill="#FFFFFF"></path>
                        <path d="M46.4544024,45.3175704 L2.39004205,45.3175704 C1.24934955,45.3175704 0.324318584,44.3870785 0.324318584,43.239652 L0.324318584,28.83095 C0.324318584,27.6835235 1.24934955,26.7530316 2.39004205,26.7530316 L46.4544024,26.7530316 C47.5950949,26.7530316 48.5201259,27.6835235 48.5201259,28.83095 L48.5201259,43.239652 C48.5201259,44.3870785 47.5955081,45.3175704 46.4544024,45.3175704 Z" id="Path" fill="#DAE7FF"></path>
                        <path d="M46.4544024,70.2175704 L2.39004205,70.2175704 C1.24934955,70.2175704 0.324318584,69.2870785 0.324318584,68.139652 L0.324318584,53.73095 C0.324318584,52.5835235 1.24934955,51.6530316 2.39004205,51.6530316 L46.4544024,51.6530316 C47.5950949,51.6530316 48.5201259,52.5835235 48.5201259,53.73095 L48.5201259,68.139652 C48.5201259,69.2870785 47.5955081,70.2175704 46.4544024,70.2175704 Z" id="Path备份" fill="#DAE7FF"></path>
                        <path d="M46.4544024,43.239652 L2.39004205,43.239652 C1.24934955,43.239652 0.324318584,42.3091601 0.324318584,41.1617336 L0.324318584,26.7530316 C0.324318584,25.6056051 1.24934955,24.6751132 2.39004205,24.6751132 L46.4544024,24.6751132 C47.5950949,24.6751132 48.5201259,25.6056051 48.5201259,26.7530316 L48.5201259,41.1617336 C48.5201259,42.3091601 47.5955081,43.239652 46.4544024,43.239652 Z" id="Path" fill="#FFFFFF"></path>
                        <path d="M46.4544024,68.139652 L2.39004205,68.139652 C1.24934955,68.139652 0.324318584,67.2091601 0.324318584,66.0617336 L0.324318584,51.6530316 C0.324318584,50.5056051 1.24934955,49.5751132 2.39004205,49.5751132 L46.4544024,49.5751132 C47.5950949,49.5751132 48.5201259,50.5056051 48.5201259,51.6530316 L48.5201259,66.0617336 C48.5201259,67.2091601 47.5955081,68.139652 46.4544024,68.139652 Z" id="Path备份-2" fill="#FFFFFF"></path>
                        <path d="M103.745177,10.4797738 L61.0470861,10.4797738 C60.5905613,10.4797738 60.2207968,10.1078264 60.2207968,9.64860641 L60.2207968,6.13817103 C60.2207968,5.67895105 60.5905613,5.30700366 61.0470861,5.30700366 L103.745177,5.30700366 C104.201702,5.30700366 104.571466,5.67895105 104.571466,6.13817103 L104.571466,9.64860641 C104.571466,10.1078264 104.201702,10.4797738 103.745177,10.4797738 Z" id="Path" fill="#1B90FB"></path>
                        <path d="M78.349999,37.1394672 L61.0474993,37.1394672 C60.5909744,37.1394672 60.2212099,36.7675198 60.2212099,36.3082998 L60.2212099,32.7978644 C60.2212099,32.3386444 60.5909744,31.966697 61.0474993,31.966697 L78.349999,31.966697 C78.8065239,31.966697 79.1762884,32.3386444 79.1762884,32.7978644 L79.1762884,36.3082998 C79.1762884,36.7671042 78.8061108,37.1394672 78.349999,37.1394672 Z" id="Path" fill="#7266D5"></path>
                        <g transform="translate(59.905980, 13.714262)" fill="#DCEEFD">
                            <path d="M74.9130483,1.64404906 L1.0667396,1.64404906 C0.651529181,1.64404906 0.314816256,1.30534835 0.314816256,0.887686751 L0.314816256,0.884777665 C0.314816256,0.467116062 0.651529181,0.128415359 1.0667396,0.128415359 L74.9130483,0.128415359 C75.3282587,0.128415359 75.6649717,0.467116062 75.6649717,0.884777665 L75.6649717,0.887686751 C75.6649717,1.30576394 75.3286719,1.64404906 74.9130483,1.64404906 Z" id="Path"></path>
                            <path d="M74.9130483,6.05921013 L1.0667396,6.05921013 C0.651529181,6.05921013 0.314816256,5.72050942 0.314816256,5.30284782 L0.314816256,5.29993873 C0.314816256,4.88227713 0.651529181,4.54357643 1.0667396,4.54357643 L74.9130483,4.54357643 C75.3282587,4.54357643 75.6649717,4.88227713 75.6649717,5.29993873 L75.6649717,5.30284782 C75.6649717,5.72050942 75.3286719,6.05921013 74.9130483,6.05921013 Z" id="Path"></path>
                            <path d="M74.9130483,10.4743712 L1.0667396,10.4743712 C0.651529181,10.4743712 0.314816256,10.1356705 0.314816256,9.71800889 L0.314816256,9.7150998 C0.314816256,9.2974382 0.651529181,8.9587375 1.0667396,8.9587375 L74.9130483,8.9587375 C75.3282587,8.9587375 75.6649717,9.2974382 75.6649717,9.7150998 L75.6649717,9.71800889 C75.6649717,10.1356705 75.3286719,10.4743712 74.9130483,10.4743712 Z" id="Path"></path>
                            <path d="M29.0023443,14.8891167 L1.0667396,14.8891167 C0.651529181,14.8891167 0.314816256,14.550416 0.314816256,14.1327544 L0.314816256,14.1298453 C0.314816256,13.7121837 0.651529181,13.373483 1.0667396,13.373483 L29.0023443,13.373483 C29.4175547,13.373483 29.7542677,13.7121837 29.7542677,14.1298453 L29.7542677,14.1327544 C29.7542677,14.5508316 29.4179679,14.8891167 29.0023443,14.8891167 Z" id="Path"></path>
                            <path d="M73.6040375,38.273483 L2.23578609,38.273483 C1.17503077,38.273483 0.314816256,36.624761 0.314816256,34.5916745 L0.314816256,34.5775137 C0.314816256,32.5444271 1.17503077,30.8957052 2.23578609,30.8957052 L73.6040375,30.8957052 C74.6647928,30.8957052 75.5250073,32.5444271 75.5250073,34.5775137 L75.5250073,34.5916745 C75.5250073,36.626784 74.6658483,38.273483 73.6040375,38.273483 Z" id="Path备份-3"></path>
                            <path d="M73.6040375,48.4179274 L2.23578609,48.4179274 C1.17503077,48.4179274 0.314816256,46.7692055 0.314816256,44.7361189 L0.314816256,44.7219581 C0.314816256,42.6888716 1.17503077,41.0401496 2.23578609,41.0401496 L73.6040375,41.0401496 C74.6647928,41.0401496 75.5250073,42.6888716 75.5250073,44.7219581 L75.5250073,44.7361189 C75.5250073,46.7712285 74.6658483,48.4179274 73.6040375,48.4179274 Z" id="Path备份-4"></path>
                            <path d="M73.6040375,58.5623719 L2.23578609,58.5623719 C1.17503077,58.5623719 0.314816256,56.9136499 0.314816256,54.8805634 L0.314816256,54.8664026 C0.314816256,52.833316 1.17503077,51.1845941 2.23578609,51.1845941 L73.6040375,51.1845941 C74.6647928,51.1845941 75.5250073,52.833316 75.5250073,54.8664026 L75.5250073,54.8805634 C75.5250073,56.9156729 74.6658483,58.5623719 73.6040375,58.5623719 Z" id="Path备份-5"></path>
                        </g>
                    </g>
                </g>
            </g>
        </g>
    </g>
</svg>