<?xml version="1.0" encoding="UTF-8"?>
<svg width="336px" height="196px" viewBox="0 0 336 196" version="1.1" xmlns="http://www.w3.org/2000/svg" xmlns:xlink="http://www.w3.org/1999/xlink">
    <title>编组 12</title>
    <g id="页面-2" stroke="none" stroke-width="1" fill="none" fill-rule="evenodd">
        <g id="编组-9" transform="translate(28.000000, 5.000000)">
            <g id="chevron_arrow_1_" transform="translate(73.322279, 19.344173)" fill-rule="nonzero">
                <polygon id="Path" fill="#F3F9FF" points="12.341534 7.22347425 5.1968852 14.369122 0.123703231 14.369122 7.26880187 7.22347425 0.123703231 0.0782764228 5.1968852 0.0782764228"></polygon>
                <polygon id="Path" fill="#E7F4FE" points="21.2729073 7.22347425 14.1278087 14.369122 9.0546267 14.369122 16.1997253 7.22347425 9.0546267 0.0782764228 14.1278087 0.0782764228"></polygon>
                <polygon id="Path" fill="#DCEEFD" points="30.2038308 7.22347425 23.059182 14.369122 17.986 14.369122 25.1310986 7.22347425 17.986 0.0782764228 23.059182 0.0782764228"></polygon>
                <polygon id="Path" fill="#D0E7FE" points="39.1352041 7.22347425 31.9901054 14.369122 26.9173733 14.369122 34.0620221 7.22347425 26.9173733 0.0782764228 31.9901054 0.0782764228"></polygon>
            </g>
            <g id="cog_1_" transform="translate(0.000000, 31.040650)" fill-rule="nonzero">
                <path d="M74.1544643,45.5429322 C72.2543827,44.2221301 71.1212611,42.0546829 71.1212611,39.7405799 C71.1212611,37.426477 72.2530332,35.2572304 74.1531148,33.9364282 C78.6433172,30.8157182 80.7075867,27.5110136 79.0522126,23.5139675 C77.3968384,19.5173713 73.6011735,18.6401355 68.2203078,19.6082439 C65.9428189,20.0180705 63.609551,19.2865908 61.9730697,17.6504336 C60.3365884,16.0142764 59.6033656,13.6799295 60.0131607,11.4022656 C60.9816446,6.02008672 60.104926,2.22368022 56.1081871,0.568178862 C52.1109983,-1.08777236 48.8065476,0.977105691 45.6860774,5.46765312 C44.3653767,7.36833062 42.1971964,8.50198916 39.8828214,8.5015393 C37.5684464,8.50108943 35.4016156,7.36698103 34.0804651,5.46630352 C30.9604447,0.976655827 27.6564439,-1.08687263 23.6597049,0.568628726 C19.6634158,2.22413008 18.7862474,6.02008672 19.7542815,11.400916 C20.1640765,13.6785799 19.4326531,16.012477 17.7966216,17.6486341 C16.1605901,19.2852412 13.8264226,20.0189702 11.5489337,19.6086938 C6.16716837,18.6401355 2.37105357,19.5169214 0.715229592,23.5144173 C-0.940144558,27.5114634 1.124125,30.816168 5.61432738,33.936878 C7.51485884,35.2576802 8.64843027,37.4260271 8.64798044,39.7405799 C8.64753061,42.0551328 7.51350935,44.2221301 5.61297789,45.5433821 C1.12367517,48.6636423 -0.940144558,51.9683469 0.715229592,55.9649431 C2.37060374,59.9619892 6.16716837,60.8392249 11.5484838,59.8702168 C13.8264226,59.4599404 16.1605901,60.1918699 17.7970714,61.8289268 C19.4335527,63.4659837 20.1636267,65.8003306 19.7538316,68.0784444 C18.7857976,73.4597236 19.662966,77.2556802 23.6592551,78.9111816 C27.655994,80.5666829 30.9604447,78.5022547 34.080915,74.0112575 C35.4016156,72.1105799 37.5697959,70.9769214 39.8841709,70.9773713 C42.1985459,70.9778211 44.3658265,72.1119295 45.6865272,74.012607 C48.8065476,78.5022547 52.1109983,80.5662331 56.1072874,78.9107317 C60.1035765,77.2552304 60.9807449,73.4592737 60.0127109,68.0779946 C59.6029158,65.8003306 60.3343393,63.4664336 61.9703707,61.8298266 C63.6064022,60.1932195 65.9405697,59.4594905 68.2180587,59.8697669 C73.599824,60.8383252 77.3959388,59.9615393 79.0517628,55.9644932 C80.7075867,51.967897 78.643767,48.6631924 74.1544643,45.5429322 Z" id="Path" fill="#F3F9FF"></path>
                <ellipse id="Oval" fill="#DCEEFD" cx="39.8837211" cy="39.7392304" rx="21.1977857" ry="21.1994146"></ellipse>
                <path d="M61.0815068,39.7392304 C61.0815068,51.4343577 51.5779498,60.938645 39.8837211,60.938645 C33.5950986,60.938645 27.9069991,58.1827751 24.0560051,53.8015447 C27.7657526,57.1579837 32.7116327,59.1720271 38.1172389,59.1720271 C49.8114677,59.1720271 59.3150247,49.6677398 59.3150247,37.9726125 C59.3150247,32.5665908 57.3011361,27.6203306 53.9449549,23.9102981 C58.3258486,27.7615881 61.0815068,33.4501247 61.0815068,39.7392304 Z" id="Path" fill="#FFFFFF"></path>
                <path d="M55.7114371,25.676916 C52.0016896,22.320477 47.0558095,20.3064336 41.6502032,20.3064336 C29.9559745,20.3064336 20.4524175,29.8107209 20.4524175,41.5058482 C20.4524175,46.9114201 22.4663061,51.8581301 25.8224872,55.5681626 C21.4415935,51.7168726 18.6859354,46.028336 18.6859354,39.7392304 C18.6859354,28.044103 28.1894923,18.5398157 39.8837211,18.5398157 C46.1727934,18.5398157 51.860443,21.2956856 55.7114371,25.676916 Z" id="Path" fill="#D0E7FE"></path>
            </g>
            <g id="cog" transform="translate(126.852041, 0.000000)" fill="#F3F9FF" fill-rule="nonzero">
                <path d="M67.8977798,18.1731762 C67.3431395,16.8339295 65.9203274,16.0723089 64.498415,16.3539241 L60.0077628,17.2424065 C58.9488631,17.4520434 57.8535272,17.0836043 57.1378478,16.2751978 C56.3803342,15.4195556 55.5778376,14.6138482 54.733057,13.8616748 C53.9278614,13.1450407 53.5630493,12.055019 53.7717704,10.9973875 L54.658835,6.51358808 C54.9399787,5.0915664 54.1784167,3.66909485 52.8397228,3.11441192 L46.2092296,0.367539295 C44.8700859,-0.187143631 43.3258197,0.280715447 42.5192747,1.48500271 L39.9763861,5.28230894 C39.3776624,6.17663957 38.3462024,6.69083469 37.2715587,6.62830352 C36.1424855,6.56262331 35.0053155,6.56487263 33.8645468,6.63460163 C32.7858546,6.70028184 31.7530451,6.18743631 31.1511726,5.28905691 L28.6037857,1.48500271 C27.7972406,0.280715447 26.2529745,-0.187143631 24.9138308,0.367539295 L18.2833376,3.11396206 C16.9441939,3.66864499 16.1830816,5.09111653 16.4642253,6.51358808 L17.3526395,11.0045854 C17.5622602,12.0635664 17.1933997,13.1589864 16.3855051,13.8747209 C15.5299286,14.6322927 14.7242832,15.4348509 13.9721675,16.2796965 C13.2555884,17.0849539 12.1652007,17.449794 11.1081003,17.2410569 L6.62464541,16.3539241 C5.20273299,16.0727588 3.78037075,16.8343794 3.22573044,18.1731762 L0.479068878,24.8041789 C-0.0755714286,26.1434255 0.392251701,27.6878103 1.59644643,28.4944173 L5.39391071,31.0375014 C6.28817262,31.6367209 6.8018784,32.6678103 6.73935204,33.7425366 C6.67367687,34.8716965 6.67592602,36.0089539 6.74564966,37.1498103 C6.81132483,38.2290352 6.29851871,39.2619241 5.40020833,39.863393 L1.59644643,42.4109756 C0.392251701,43.2175827 -0.0755714286,44.7619675 0.479068878,46.1012141 L3.22528061,52.7322168 C3.77992092,54.0714634 5.20273299,54.8326341 6.62464541,54.5514688 L11.1152976,53.6629864 C12.1741973,53.4533496 13.2695332,53.8217886 13.9852126,54.6301951 C14.7427262,55.4858374 15.5452228,56.2919946 16.3900034,57.0437182 C17.195199,57.7603523 17.5604609,58.850374 17.35129,59.9080054 L16.4642253,64.391355 C16.1830816,65.8133767 16.9441939,67.2362981 18.2833376,67.790981 L24.9138308,70.5374038 C26.2529745,71.0920867 27.7972406,70.6246775 28.6037857,69.4199404 L31.1466743,65.6226341 C31.7458478,64.7283035 32.776858,64.2141084 33.8515017,64.2766396 C34.9805748,64.3423198 36.1177449,64.3400705 37.2585136,64.2707913 C38.3372058,64.2051111 39.3700153,64.7179566 39.9714379,65.6158862 L42.5188248,69.4199404 C43.3253699,70.6242276 44.8696361,71.0920867 46.2087798,70.5374038 L52.839273,67.790981 C54.1784167,67.2362981 54.9395289,65.8133767 54.6583852,64.391355 L53.7699711,59.8999079 C53.5608002,58.8409268 53.9292109,57.7455068 54.7371054,57.0302222 C55.5931318,56.2726504 56.3987772,55.4700921 57.150443,54.6252466 C57.8670221,53.8199892 58.9574099,53.4551491 60.0145102,53.664336 L64.4975153,54.5514688 C65.9194277,54.833084 67.3422398,54.0714634 67.8964303,52.7322168 L70.6430918,46.1012141 C71.1977321,44.7619675 70.729909,43.2175827 69.5257143,42.4109756 L65.72825,39.8678916 C64.8339881,39.2686721 64.3202823,38.2375827 64.3828087,37.1628564 C64.4484838,36.0336965 64.4462347,34.896439 64.3765111,33.7555827 C64.3108359,32.6768076 64.823642,31.6434688 65.7219524,31.042 L69.5257143,28.4944173 C70.729909,27.6878103 71.1977321,26.1434255 70.6430918,24.8041789 L67.8977798,18.1731762 Z M41.3798554,49.4990407 C33.6229881,52.7124228 24.7298503,49.0284824 21.5167151,41.271019 C18.3035799,33.5135556 21.9872372,24.6197344 29.7441046,21.4063523 C37.5009719,18.1929702 46.3941097,21.8769106 49.6072449,29.634374 C52.8208299,37.3918374 49.1371726,46.2856585 41.3798554,49.4990407 Z" id="Shape"></path>
            </g>
            <g id="plant_5_" transform="translate(216.921769, 41.837398)" fill-rule="nonzero">
                <path d="M6.31201361,61.3565691 C6.31201361,61.3565691 3.54286054,-4.43521409 53.1748461,0.736428184 C58.866994,2.84719241 48.9176556,10.0657182 43.6132611,11.6096531 C36.749756,13.6075014 41.285841,21.0766016 33.8609481,24.0628022 C24.7527917,27.7255989 27.029381,32.8594526 25.9277474,41.1976911 C25.1342474,47.1966341 9.80089456,51.0231816 6.31201361,61.3565691 Z" id="Path" fill="#F3F9FF"></path>
                <path d="M7.82389201,76.4234309 C7.82389201,76.4234309 5.04529252,12.3577778 46.9154626,21.3811599 C50.5599847,22.4446396 45.179119,28.6599675 39.5440995,29.8543577 C33.9090799,31.048748 36.9755706,39.5696314 33.5091811,45.0197398 C29.6613359,51.0690678 20.9539779,51.5090352 20.5527296,59.9107046 C20.2639388,65.9555339 10.4369541,65.8349702 7.82389201,76.4234309 Z" id="Path" fill="#DCEEFD"></path>
                <path d="M0.278444728,88.6147588 C0.894261905,82.5654309 -0.591076531,73.8726992 7.86932483,72.0296043 C16.3297262,70.1865095 13.9532747,64.5258645 16.0958146,58.0883035 C18.2383546,51.6507425 26.7100017,51.7645583 29.3082194,49.8584824 C31.7278546,48.0833171 30.2794022,43.8213008 32.3229796,39.5349919 C36.8334243,30.0747913 46.6545612,28.7854797 49.9221259,38.5538374 C51.8752874,44.3926287 43.9150969,49.7289214 42.909727,52.0790136 C40.7406471,57.1494363 43.6717389,59.7091653 43.1926701,63.5784499 C41.7118299,75.5353984 33.7831276,75.3941409 32.4916658,79.3138103 C31.2002041,83.2334797 34.6450017,86.4126721 31.1709651,94.4463523 C27.6969286,102.480033 16.0652262,107.209008 11.0820102,104.938542 C7.6974898,103.396407 -0.876718537,99.9639404 0.278444728,88.6147588 Z" id="Path" fill="#F3F9FF"></path>
                <path d="M34.1434413,53.0871599 C34.8712662,50.8630298 35.6116862,48.6074092 36.4704116,46.6005637 C37.1244643,46.5947154 39.6678027,46.4804499 41.3249762,45.1034146 C41.4203401,45.0237886 41.4333852,44.8820813 41.3542151,44.78671 C41.2745952,44.6908889 41.1328988,44.6778428 41.0375349,44.7574688 C39.6466607,45.9136206 37.4951241,46.1111111 36.6678869,46.1439512 C37.6264745,43.9958482 38.7375544,42.1734472 40.1428231,41.0514851 C40.2399864,40.9741084 40.2557304,40.8324011 40.1783597,40.7352304 C40.1009889,40.6385095 39.9592925,40.6218645 39.8621293,40.6996911 C38.3250604,41.9269214 37.1397585,43.9297182 36.125392,46.2667642 C36.1186446,46.2784607 36.1136964,46.290607 36.1091981,46.3036531 C35.2198844,48.359084 34.4610213,50.6695881 33.7161029,52.947252 C32.7836054,55.7966938 31.8200697,58.7437561 30.6230723,61.1136423 C29.4026837,63.5303144 27.1422883,66.3131762 24.7276012,69.2597886 C24.3115085,67.8053767 22.9984549,62.6530786 23.961091,58.5530136 C23.9894303,58.432 23.9147585,58.3109864 23.7937543,58.282645 C23.67275,58.2552033 23.5517457,58.3294309 23.5234065,58.4504444 C22.440216,63.063355 24.0991888,68.7680867 24.3821318,69.6822114 C20.4641131,74.4624715 16.0715238,79.8639946 14.610926,85.3730352 C14.3594711,86.3213496 14.0562857,87.2881084 13.7193631,88.2584661 C12.7967619,87.830645 9.24580442,85.7914092 9.61196599,79.8666938 C9.6196131,79.7425312 9.52559864,79.6359133 9.40144558,79.6282656 C9.27729252,79.6206179 9.17068282,79.7146396 9.16303571,79.8388022 C8.78023044,86.0266883 12.6339235,88.2377724 13.571369,88.6817886 C10.709551,96.6839783 5.52436139,104.790087 5.46498384,104.882309 C5.39795918,104.986678 5.42809779,105.126136 5.53245833,105.193165 C5.56574575,105.214759 5.60308163,105.226005 5.63996769,105.2287 C5.71868793,105.233203 5.79740816,105.196764 5.84329082,105.125686 C5.90356803,105.032114 11.1944677,96.7591057 14.0616837,88.6404011 C14.0621335,88.6390515 14.063483,88.6386016 14.0639328,88.6377019 C14.0648325,88.6354526 14.0643827,88.6332033 14.0648325,88.6314038 C14.4377415,87.5746721 14.7715153,86.5210894 15.0454617,85.4882005 C15.1133861,85.2326775 15.1939056,84.9771545 15.2744252,84.7216314 C15.7629405,84.9015772 16.975682,85.2925095 18.5289447,85.3883306 C20.5374354,85.5124932 23.1095629,85.1427046 25.4014464,83.1835447 C25.4959107,83.1025691 25.5071565,82.9608618 25.4261871,82.8663902 C25.3456675,82.7719187 25.2035213,82.7615718 25.109057,82.8416477 C21.1973359,86.1854905 16.4165434,84.6680976 15.412523,84.2938103 C17.1457177,79.2242873 21.2292738,74.2370894 24.8670485,69.799626 C26.5017304,67.8053767 28.0711871,65.8858049 29.3244133,64.0881463 C29.6496403,64.169122 30.4669813,64.3499675 31.541625,64.4165474 C33.2482798,64.5222656 35.580648,64.3342222 37.5243631,62.9819295 C37.6260247,62.9113008 37.6512151,62.7709431 37.5805918,62.6688238 C37.5099685,62.5676043 37.3700714,62.5415122 37.2675102,62.6130407 C34.4677687,64.5618537 30.682,63.926645 29.59746,63.6886667 C30.1512007,62.8703631 30.6415153,62.0759024 31.0243206,61.316981 C32.2366122,58.9156043 33.2059957,55.9527967 34.1434413,53.0871599 Z" id="Path" fill="#CCD5E5"></path>
            </g>
            <g id="编组" transform="translate(32.498597, 8.000000)">
                <g id="puzzle_2_" transform="translate(57.002806, 33.000000)"></g>
                <path d="M175.501403,92.0008741 L175.501403,141.166812 C175.501403,146.597354 171.1055,151 165.683274,151 L165.683274,151 L116.59263,151 L116.59263,132.526718 C116.59263,131.420594 115.977797,130.407557 114.995547,129.901476 C114.013298,129.395394 112.830759,129.4828 111.933164,130.126983 C109.374341,131.962949 106.323303,133.791485 104.319532,133.791485 C98.8968705,133.791485 94.5014032,128.288396 94.5014032,121.5 C94.5014032,114.711604 98.8968705,109.208515 104.319532,109.208515 C106.323303,109.208515 109.374778,111.037051 111.933164,112.873017 C112.830323,113.516763 114.012425,113.602421 114.993802,113.096776 C115.975178,112.591132 116.592193,111.578532 116.592193,110.473282 L116.592193,110.473282 L116.592193,92.0008741 L135.70359,92.0002704 C136.511023,92.2058063 137.206833,92.7473491 137.598492,93.5074909 C138.104144,94.4888727 138.018485,95.6709818 137.374729,96.5681455 C135.538737,99.1265455 133.710174,102.178036 133.710174,104.181818 C133.710174,109.604509 139.213344,114 146.00184,114 C152.790337,114 158.293507,109.604509 158.293507,104.181818 C158.293507,102.178036 156.464944,99.1269818 154.628951,96.5681455 C153.984759,95.6705455 153.897351,94.488 154.40344,93.5057455 C154.794794,92.7461769 155.489301,92.2063167 156.295581,92.0005738 L175.501403,92.0008741 Z" id="形状结合" fill="#46CF9F" fill-rule="nonzero"></path>
                <path d="M116.501403,91.9090909 L134.974959,91.9090909 C136.080225,91.9090909 137.09284,92.5261091 137.598492,93.5074909 C138.104144,94.4888727 138.018485,95.6709818 137.374729,96.5681455 C135.538737,99.1265455 133.710174,102.178036 133.710174,104.181818 C133.710174,109.604509 139.213344,114 146.00184,114 C152.790337,114 158.293507,109.604509 158.293507,104.181818 C158.293507,102.178036 156.464944,99.1269818 154.628951,96.5681455 C153.984759,95.6705455 153.897351,94.488 154.40344,93.5057455 C154.909529,92.5234909 155.922581,91.9086545 157.028722,91.9086545 L175.501403,91.9086545 L175.501403,42.8181818 C175.501403,37.3959273 171.098692,33 165.66807,33 L116.501403,33 L116.501403,91.9090909 Z" id="Path" fill="#977FF5" fill-rule="nonzero"></path>
                <path d="M78.5677305,90.4004444 C79.0730396,89.4166741 78.9857669,88.2327407 78.3425669,87.3333185 C76.5094032,84.7709704 74.6836578,81.7147704 74.6836578,79.7078963 C74.6836578,74.276837 80.1783487,69.874563 86.9563851,69.874563 C93.7344214,69.874563 99.2291123,74.276837 99.2291123,79.7078963 C99.2291123,81.7147704 97.4033669,84.7705333 95.5702032,87.3333185 C94.9274396,88.2323037 94.8419123,89.4158 95.3467851,90.3986963 C95.8516578,91.3815926 96.8627123,92 97.966276,92 L116.410494,92 L116.410494,73.5260074 C116.410494,72.4207407 117.027512,71.4081259 118.008894,70.9024741 C118.990276,70.3968222 120.172385,70.4824815 121.069549,71.126237 C123.627949,72.9622296 126.67944,74.7907926 128.683221,74.7907926 C134.105912,74.7907926 138.501403,69.2876222 138.501403,62.4991259 C138.501403,55.7106296 134.105912,50.2074593 128.683221,50.2074593 C126.67944,50.2074593 123.628385,52.0360222 121.069549,53.8720148 C120.171949,54.5162074 118.989403,54.6036148 118.007149,54.0975259 C117.024894,53.591437 116.410058,52.5783852 116.410058,51.4722444 L116.410058,33 L67.3195851,33 C61.8973305,33 57.5014032,37.4027111 57.5014032,42.8333333 L57.5014032,92 L75.9464941,92 C77.0509305,92 78.0628578,91.3842148 78.5677305,90.4004444 Z" id="Path" fill="#4E7EF5" fill-rule="nonzero"></path>
                <path d="M66.272265,136.888684 C65.5694082,136.025413 64.4428154,135.628977 63.3544642,135.861294 C60.2538064,136.522608 56.700841,136.978443 54.8511716,136.170171 C49.8454597,133.982074 48.0028232,127.130903 50.7355692,120.867567 C53.4683151,114.60423 59.7408396,111.300744 64.746991,113.489281 C66.5966605,114.297993 68.6775386,117.216044 70.2999554,119.942696 C70.8691859,120.898806 71.9258887,121.454521 73.0353387,121.384561 C74.1452283,121.314162 75.1219311,120.629089 75.5667661,119.609179 L83.0028065,102.565072 L65.9755619,95.1216678 C64.9566613,94.6763923 64.272266,93.6982823 64.2019363,92.5877335 C64.1316067,91.4767448 64.6872108,90.4194355 65.6423752,89.8496413 C68.3658904,88.2251778 71.281933,86.1422389 72.0894051,84.2911777 C74.2753381,79.2805085 70.9755595,73.0013322 64.7184196,70.26588 C58.4612798,67.5304278 51.6168874,69.374889 49.4309544,74.3855582 C48.6230427,76.2370594 49.0784271,79.7935433 49.7395257,82.8972718 C49.9716135,83.9862608 49.5751302,85.1139694 48.7131526,85.8179622 C47.8507354,86.5215151 46.6691975,86.6816734 45.6498573,86.235958 L28.6226127,78.7925535 L8.83185296,124.154773 C6.64591994,129.165442 8.93163313,135.001103 13.937345,137.189201 L59.254686,157 L66.6907264,139.955893 C67.1351218,138.934663 66.9755614,137.751515 66.272265,136.888684 Z" id="Path" fill="#234280" fill-rule="nonzero"></path>
            </g>
        </g>
    </g>
</svg>